<?xml version="1.0" encoding="utf-8"?>
<!-- Generator: Adobe Illustrator 25.4.1, SVG Export Plug-In . SVG Version: 6.00 Build 0)  -->
<svg version="1.1" id="e9543dae-de41-418f-9290-24abb7460ee9"
	 xmlns="http://www.w3.org/2000/svg" xmlns:xlink="http://www.w3.org/1999/xlink" x="0px" y="0px" viewBox="0 0 1012 794"
	 style="enable-background:new 0 0 1012 794;" xml:space="preserve">
<style type="text/css">
	.st0{opacity:0.1;fill:#6CB7CA;enable-background:new    ;}
	.st1{fill:#6CB7CA;}
	.st2{fill:#3F3D56;}
	.st3{fill:#2F2E41;}
	.st4{fill:#9F616A;}
	.st5{opacity:0.1;enable-background:new    ;}
	.st6{fill:none;stroke:#6CB7CA;stroke-width:4;stroke-miterlimit:10;}
</style>
<path class="st0" d="M85.4,377.7c43.6-45.3,67.2-66.6,106.6-34c32.5,26.9,34-15,37.4-59.4c0.2-2,0.3-4,0.5-6
	c1.8-17.4,3.9-35.7,12.8-49.5c11.8-18.1,33.4-23.7,51.9-18.3c18.5,5.5,34.3,20.1,47.8,36.4c43.2,52.2,67.7,122.8,105.5,180.9
	c7.7,11.8,16.4,23.5,27.9,29.2c16.6,8.2,35.6,2.4,51.8-6.7c52.8-29.8,88.3-90.6,123.2-147.3c17-27.6,37.6-57.1,65.9-60.1
	c29.7-3.2,55.5,24.5,72.9,53.8c56,94.3,35.2,158.8,102.8,241.1c8.4,10.2,17.7,19.6,28.3,26c3.5,2.1,7.2,3.8,11,5.3
	c59,22.4,65.3,185.5,5.4,223.2c-0.9,1.1-1.9,2.3-2.9,3.4c-6.5,7.5-13.8,14.6-22.6,16.8c-8.1,2.1-16.6-0.3-24.6-2.9
	c-51.6-16.5-40.2-35.2-93.6-34c-51.9,1.1-101.2,27.4-152.6,36.8c-34.5,6.4-69.7,5.1-104.6,3.7c-116.3-4.6-232.6-9.9-348.8-16
	c-57.7-2.9-93.1-5.9-150.8-9.2C-29.4,786.6,15,450.9,85.4,377.7z"/>
<path class="st1" d="M1012,497.3c0,122.8-73,165.7-163.1,165.7s-163.1-42.9-163.1-165.7s163.1-279.1,163.1-279.1
	S1012,374.4,1012,497.3z"/>
<polygon class="st2" points="843,644.2 844.6,541.4 914.1,414.2 844.9,525.3 845.6,479 893.5,387 845.8,466.8 845.8,466.8 
	847.2,383.7 898.5,310.4 847.4,370.6 848.2,218.2 842.9,420 843.4,411.6 791.2,331.8 842.5,427.6 837.7,520.5 837.5,518 777.4,434 
	837.3,526.7 836.7,538.3 836.6,538.5 836.7,539.5 824.3,775 840.8,775 842.8,653.3 902.6,560.8 "/>
<ellipse class="st2" cx="707" cy="777" rx="228" ry="17"/>
<rect x="692" class="st2" width="36" height="782"/>
<path class="st1" d="M914.5,749.1c0,22.5-13.4,30.3-29.8,30.3c-0.4,0-0.8,0-1.1,0c-0.8,0-1.5-0.1-2.3-0.1
	c-14.9-1.1-26.4-9.3-26.4-30.2c0-21.6,27.6-48.9,29.7-50.9l0,0c0.1-0.1,0.1-0.1,0.1-0.1S914.5,726.6,914.5,749.1z"/>
<path class="st2" d="M883.6,776l10.9-15.2l-10.9,16.9l0,1.8c-0.8,0-1.5-0.1-2.3-0.1l1.2-22.5l0-0.2l0,0l0.1-2.1l-11-17l11,15.4
	l0,0.5l0.9-17l-9.4-17.5l9.5,14.5l0.9-35.2l0-0.1v0.1l-0.2,27.8l9.3-11l-9.4,13.4l-0.2,15.2l8.7-14.6l-8.8,16.8l-0.1,8.5l12.7-20.3
	l-12.7,23.3L883.6,776z"/>
<path class="st3" d="M649.2,732.3l-6.4-4.7c0,0-4.2,23.6,0.5,27.1s22.4,9.4,22.4,16.5s40.1,16.5,41.2,5.9s-3.5-16.5-3.5-16.5
	s-18.9-18.9-21.2-22.4s-8.2-10.6-8.2-10.6L649.2,732.3z"/>
<path class="st3" d="M743.5,438.9c0,0-0.2,1-0.5,2.9c-0.3,1.7-0.7,4.1-1.1,7c-4.9,30.2-19.4,119.1-18.4,122.1c1.2,3.5,9.4,16.5,0,20
	c-0.9,0.3-1.9,1.4-2.9,3.2c-2,3.8-3.7,7.7-5,11.8c-5.6,16.3-11.6,42.4-15.1,60.5c-1.5,7.9-2.6,14.3-2.9,17.7c-0.1,0.8-0.1,1.6,0,2.3
	c1.2,4.7-7.1,21.2-10.6,25.9s-9.4,9.4-8.2,14.1s-29.5,17.7-33,9.4s-3.5-13-4.7-15.3s-2.4-18.9,3.5-21.2s2.4-43.6,8.2-51.9
	c2-2.7,5-12,8.1-23.2c1.2-4.4,2.5-9.1,3.7-13.7c5-19.2,9.4-38.5,9.4-38.5l-1.2-137.9l64.8-8.2l1.7,3.7l3.3,7.3L743.5,438.9z"/>
<path class="st3" d="M747,665.1c0,0,9.4-9.4,14.1,0s9.4,46,17.7,54.2s18.9,49.5,7.1,51.9s-24.7-3.5-25.9-10.6s-25.9-43.6-25.9-47.1
	s16.5-16.5,16.5-16.5L747,665.1z"/>
<path class="st3" d="M602.1,374c0,0,15.3,137.9,18.9,150.8s22.4,62.5,28.3,70.7s43.6,75.4,48.3,79s14.1,13,14.1,13
	s17.7,17.7,20,21.2s22.4-7.1,23.6-14.1s-1.2-18.9-2.4-23.6s2.4-11.8-1.2-15.3s-21.2-21.2-21.2-29.5s-30.6-56.6-42.4-67.2
	s-9.4-28.3-9.4-28.3v-71.9l64.8-20c0,0-3.5-56.6-11.8-56.6S615.1,363.4,602.1,374z"/>
<circle class="st4" cx="697.5" cy="138.3" r="38.9"/>
<path class="st4" d="M684.6,169c0,0-4.7,17.7-10.6,22.4s15.3,24.7,15.3,24.7l40.1,2.4l7.1-22.4c0,0-13-25.9-9.4-42.4
	S684.6,169,684.6,169z"/>
<path class="st2" d="M668.1,189c0,0,10.6,1.2,13,4.7s18.9,14.1,31.8,11.8s21.2-5.9,23.6-4.7s7.1,25.9,7.1,25.9l-13,37.7l2.4,103.7
	l3.5,28.3c0,0,7.1-9.4-21.2-3.5s-64.8-4.7-76.6-5.9s-31.8-4.7-33-11.8s3.5-33,3.5-33l18.9-79l11.8-42.4L668.1,189z"/>
<path class="st1" d="M679.2,183.7c0,0-10-5.3-13.5-0.6s-48.3,11.8-48.3,15.3s-9.4,99-7.1,107.2s-4.7,17.7-4.7,17.7l-8.2,35.4
	c0,0-22.4,67.2-13,69.5s17.7,0,21.2,0s2.4-44.8,11.8-56.6s22.4-41.2,24.7-47.1s31.8-87.2,30.6-96.6S679.2,183.7,679.2,183.7z"/>
<path class="st1" d="M728.2,189c0,0,9.4,0,10.6,2.4s13,17.7,17.7,21.2s21.2,18.9,21.2,22.4s-34.2,29.5-34.2,29.5
	s-14.1,69.5-7.1,93.1s17.7,80.1,13,83.7s-15.3,4.7-15.3,0s-7.1-55.4-13-66s-23.6-77.8-16.5-96.6S728.2,189,728.2,189z"/>
<path class="st4" d="M572.6,305.7c0,0-1.2,36.5,11.8,55.4s21.2,40.1,21.2,40.1s21.2-5.9,24.7-13s25.9-1.2,25.9-3.5
	s-27.1-14.1-29.5-16.5s-10.6-2.4-15.3-7.1s-5.9-15.3-5.9-15.3l-4.7-30.6L572.6,305.7z"/>
<path class="st3" d="M670.8,114.4c-3-0.3-6.1-0.6-8.7-2c-5.9-3.2-7.5-12.3-3-17.3c1.2-1.3,2.6-2.4,4.1-3.3l9-6.1
	c4-2.7,8-5.4,12.6-6.7c4.2-1.1,8.6-1,12.9-0.8c8.4,0.5,16.8,1.6,24.7,4.5s15.3,7.8,20.1,14.7c7.6,11,7.7,25.8,3.5,38.4
	s-12.1,23.7-19.9,34.5l-4.1-19.8c-0.4-1.8-0.8-3.7-2.3-4.7c-3.6-2.6-8.1,2.7-12.6,2.7c-2.9,0-5.3-2.4-6.4-5s-1.2-5.6-1.4-8.5
	c-0.5-6.1-2.7-14.5-8.4-17.8C685.6,114,676.8,114.9,670.8,114.4z"/>
<path class="st5" d="M672.9,439.8c0,0,4,115.1,6.3,118.7s0-119,0-119L672.9,439.8z"/>
<path class="st1" d="M626.8,198.4h-9.4c0,0-40.1,54.2-35.4,57.7s0,13,0,13l-9.4,17.7c0,0-11.8,10.6-8.2,13s8.2,11.8,8.2,11.8
	s23.6-3.5,30.6,10.6l15.3-19.3L626.8,198.4z"/>
<path class="st4" d="M734.1,299.8c0,0-25.9,1.2-55.4-17.7l-29.5-13c0,0-25.9-40.1-28.3-33s3.5,21.2,3.5,21.2S588.9,273.8,588,276
	s20-3.3,20-3.3s-3.5,22.4,16.5,23.6s25.9-3.5,25.9-3.5s84.8,70.7,99,48.3S734.1,299.8,734.1,299.8z"/>
<path class="st1" d="M764.7,230.3l13,4.7v35.4l4.7,7.1c0,0-1.2,14.1-4.7,17.7s-10.6,2.4-8.2,10.6c1.4,5.4,1.8,11,1.2,16.5
	c0,0-21.2,27.1-22.4,23.6s-17.7-47.1-20-47.1s23.6-68.4,23.6-68.4L764.7,230.3z"/>
<path class="st3" d="M609.7,408.8c0,0-12.2-11.8-6.1-12.4s27.3-12.4,30.8-6.5S609.7,408.8,609.7,408.8z"/>
<g>
	<path class="st2" d="M467,766.5c21.2-35.3,32.3-75.8,32.3-117c0-125.9-102.1-228-228-228s-228,102.1-228,228
		c-0.1,41.2,11.1,81.7,32.3,117H467z"/>
	<circle class="st1" cx="271.3" cy="634.5" r="22"/>
	<circle class="st1" cx="96.3" cy="670.5" r="11"/>
	<circle class="st1" cx="102.7" cy="575.3" r="11"/>
	<circle class="st1" cx="157.3" cy="496.9" r="11"/>
	<circle class="st1" cx="244.5" cy="457.9" r="11"/>
	<circle class="st1" cx="339.3" cy="469.3" r="11"/>
	<circle class="st1" cx="414.7" cy="528" r="11"/>
	<circle class="st1" cx="449.1" cy="617" r="11"/>
	<circle class="st1" cx="432.7" cy="711.1" r="11"/>
	<line class="st6" x1="271.3" y1="634.5" x2="384.3" y2="548.5"/>
</g>
</svg>
